<?xml version="1.0" encoding="UTF-8"?>
<!DOCTYPE svg PUBLIC "-//W3C//DTD SVG 1.0//EN" "http://www.w3.org/TR/2001/REC-SVG-20010904/DTD/svg10.dtd">
<!-- Creator: CorelDRAW -->
<svg xmlns="http://www.w3.org/2000/svg" xml:space="preserve" width="801px" height="260px" version="1.0" shape-rendering="geometricPrecision" text-rendering="geometricPrecision" image-rendering="optimizeQuality" fill-rule="evenodd" clip-rule="evenodd"
viewBox="0 0 14503.8 4706.4"
 xmlns:xlink="http://www.w3.org/1999/xlink"
 xmlns:xodm="http://www.corel.com/coreldraw/odm/2003">
 <g id="Layer_x0020_1_0">
  <metadata id="CorelCorpID_0Corel-Layer"/>
  <g id="_2235902264880">
   <g>
    <path fill="#848688" fill-rule="nonzero" d="M482.5 97.7c147.3,349.2 310.7,819.2 460.9,1342.8 145.5,507.5 253.8,978.9 315.8,1348.1 -0.3,-25.5 -0.5,-51.2 -0.5,-76.9 0,-1217.9 396.6,-2205 885.9,-2205 249.6,0 475.1,256.9 636.1,670.1l0 -1079.1 -2298.2 0zm1559.8 1404.6c-345,0 -638,538.3 -742.9,1286.3l1481.3 0 0 -30.7c-108.5,-731.9 -398.2,-1255.6 -738.4,-1255.6zm-1978.4 -1341.4l0 2627.7 728 0c-130.2,-328.4 -269.3,-739.6 -398.6,-1190.4 -157.5,-549.3 -271.4,-1056.3 -329.4,-1437.3z"/>
    <polygon fill="#06727F" fill-rule="nonzero" points="7771.9,1637.2 8461,1637.2 8461,1866.9 7771.9,1866.9 "/>
    <path fill="#06727F" fill-rule="nonzero" d="M3084.7 2789.1l1349.2 0 0 -78c-164.5,4 -281.1,-19.7 -349.8,-71.3 -68.7,-51.4 -102.1,-155.1 -100,-311l0 -877.7 1486.7 0 0 877.7c2,155.9 -31.3,259.6 -100,311 -68.7,51.6 -185.3,75.3 -349.8,71.3l0 78 1349.2 0 0 -78c-164.5,4 -281.1,-19.7 -349.7,-71.3 -68.8,-51.4 -102.1,-155.1 -100,-311l0 -1771c-2.1,-155.8 31.2,-259.6 100,-311.1 68.6,-51.5 185.2,-75.2 349.7,-71.2l0 -78 -1349.2 0 0 78c164.5,-4 281.1,19.7 349.8,71.2 68.7,51.5 102,155.3 100,311.1l0 729.5 -1486.7 0 0 -729.5c-2.1,-155.8 31.3,-259.6 100,-311.1 68.7,-51.5 185.3,-75.2 349.8,-71.2l0 -78 -1349.2 0 0 78c164.4,-4 281.1,19.7 349.7,71.2 68.7,51.5 102.1,155.3 100,311.1l0 1771c2.1,155.9 -31.3,259.6 -100,311 -68.6,51.6 -185.3,75.3 -349.7,71.3l0 78z"/>
    <path fill="#06727F" fill-rule="nonzero" d="M6003.7 955.7l0 78c72.9,7.6 128.1,34.4 165.5,80.5 37.5,46 69.8,101.1 96.9,165.3l707.9 1544.7 -50 124.8c-26.1,67 -54.8,135.4 -86.4,205 -31.4,69.6 -67.3,128.4 -107.6,176.4 -40.3,48 -86.7,73 -139.1,75 -59.7,-3.3 -106.9,-16.3 -141.6,-39 -34.7,-22.8 -86.1,-35.8 -154.1,-39 -59.1,0.7 -106.3,17.7 -141.6,50.7 -35.2,33 -53.3,77.2 -54.1,132.6 2.5,60.8 28.7,107.9 78.6,140.9 49.9,33.1 108.4,49.8 175.4,50.2 58.6,0.3 114.3,-7 167.1,-21.9 52.8,-14.9 101.2,-38.8 145.2,-71.7 93,-73.6 174.6,-175.9 244.7,-306.7 70.1,-130.7 132.9,-269.1 188.4,-414.8l603.8 -1529.3c28,-80.2 59.5,-150.7 94.2,-211.6 34.8,-60.7 92.3,-98.1 172.3,-112.1l0 -78 -628.7 0 0 78c53.2,-1.6 103.8,5.5 151.9,21.4 48.1,16 73.8,50.4 77,103.5 1.2,21.4 -2.2,50.7 -9.9,87.7 -7.6,37.1 -26.6,93.6 -56.7,169.7l-345.6 940.1 -441.4 -994.8c-19,-42.8 -34.1,-80.9 -45.3,-114.5 -11.2,-33.5 -16.9,-63 -17.2,-88.2 -1.2,-41.1 16.8,-72.1 54.2,-93.2 37.3,-21.1 101.1,-31.7 191.5,-31.7l0 -78 -895.3 0z"/>
    <path fill="#06727F" fill-rule="nonzero" d="M8239.8 2789.1l2394.4 0 254.1 -690.5 -100 -15.6c-83.2,184.8 -187.4,321.5 -312.8,410.1 -125.3,88.7 -297.2,132.7 -515.8,132.2l-595.5 0c-118.1,-0.9 -191.1,-31.4 -219.1,-91.7 -28,-60.3 -39.7,-145.4 -35,-255.6l0 -1720.2c-2.1,-155.8 31.3,-259.6 100,-311.1 68.8,-51.5 185.3,-75.2 349.8,-71.2l0 -78 -1320.1 0 0 78c152.4,3.2 261.1,29 325.9,77.5 64.9,48.6 96.5,147.6 94.8,297l0 1786.6c1.7,149.4 -29.9,248.4 -94.8,296.9 -64.8,48.5 -173.5,74.4 -325.9,77.6l0 78z"/>
    <path fill="#06727F" fill-rule="nonzero" d="M10774.5 1174.1l54.1 0c94.3,-0.3 160.7,16.9 198.9,51.7 38.1,34.8 56.5,89.1 55.1,162.9l0 1061c1,111.7 -22.8,183.9 -71.3,217 -48.4,33.1 -127.4,47.8 -236.8,44.4l0 78 982.8 0 0 -78c-109.5,3.4 -188.4,-11.3 -236.9,-44.4 -48.6,-33.1 -72.2,-105.3 -71.3,-217l0 -1533c-102.6,32.5 -210.9,65.9 -324.8,100 -114,34 -230.6,60.5 -349.8,79.4l0 78zm254 -963.4l0 0c1.6,59.9 23.4,109.7 65.6,149.1 42.1,39.5 95.2,60 159.3,61.5 64,-1.5 117.1,-22 159.3,-61.5 42.1,-39.4 64,-89.2 65.6,-149.1 -1.6,-60 -23.5,-109.8 -65.6,-149.3 -42.2,-39.4 -95.3,-59.9 -159.3,-61.4 -64.1,1.5 -117.2,22 -159.3,61.4 -42.2,39.5 -64,89.3 -65.6,149.3z"/>
    <path fill="#06727F" fill-rule="nonzero" d="M11861.3 1072.7l0 1217.1c-5.7,143.6 16.1,267.9 65.7,373 49.3,105.1 160.8,160.1 334,165.3 117,-2.5 216.3,-33.5 297.9,-93.2 81.5,-59.5 155.8,-132.5 222.7,-218.9l-70.8 -42.9c-32.2,34.8 -71.8,65.8 -118.6,93.2 -46.9,27.4 -94.8,41.7 -143.7,43.4 -52.9,4.3 -102.2,-14.1 -147.8,-55.2 -45.7,-41 -70,-130.5 -72.9,-268.6l0 -1213.2 462.2 0 0 -117 -462.2 0 0 -553.9 -83.3 0c-59.7,132 -140.2,251.3 -241.5,357.9 -101.4,106.6 -215.2,192.7 -341.5,258.4l0 54.6 299.8 0z"/>
    <path fill="#06727F" fill-rule="nonzero" d="M13003.7 1544.7c5.5,-128.8 55,-244.7 148.4,-347.7 93.5,-102.9 210.5,-157.4 351.4,-163.3 168.1,3.5 285.8,53.1 352.9,148.7 67.1,95.7 99.4,216.4 96.8,362.3l-949.5 0zm1349.3 117l0 0c-4.9,-215.3 -74.3,-392.1 -208.3,-530.5 -134,-138.3 -315.7,-209.8 -545.5,-214.5 -202.7,3 -372.3,53.2 -508.8,150.7 -136.4,97.4 -239.1,223.6 -308,378.6 -68.8,155.1 -103.4,320.6 -103.5,496.5 2.1,258.9 80.3,469.8 234.8,633 154.5,163.2 373.3,247.4 656.4,252.6 139,-2.2 265.3,-35.6 378.9,-100 113.6,-64.5 213,-146.9 298.5,-247.3 85.3,-100.5 155.2,-205.7 209.5,-315.9l-70.8 -42.9c-69.2,105.8 -161.7,199.5 -277.3,280.9 -115.8,81.4 -263.4,124.3 -443.1,128.7 -151.1,-2 -276.3,-40.4 -375.5,-115.3 -99.2,-74.8 -173.2,-173.9 -221.9,-297.3 -48.8,-123.4 -73.1,-258.9 -73,-406.6l0 -50.7 1357.6 0z"/>
    <path fill="#06727F" fill-rule="nonzero" d="M14321.7 2693.6l26.6 0 44.2 68.8 31.8 0 -47.9 -70.6c13,-1.2 23.6,-5.2 31.8,-12 8.3,-6.9 12.5,-17.4 12.8,-31.8 0,-16.2 -5.3,-27.9 -15.7,-35.3 -10.6,-7.3 -26.1,-11 -46.7,-10.8l-65 0 0 160.5 28.1 0 0 -68.8zm0 -22.4l0 0 0 -46.8 34 0c8.9,-0.3 17.3,0.8 24.9,3.5 7.7,2.7 11.8,8.8 12.3,18.1 -0.4,11.3 -4.3,18.4 -12,21.4 -7.6,2.9 -16.9,4.3 -27.8,3.8l-31.4 0zm182.1 8.2l0 0c-0.4,-29.3 -7.5,-54.7 -21.3,-76.4 -13.8,-21.7 -32.1,-38.4 -54.9,-50.3 -22.8,-12 -47.8,-18.1 -75.3,-18.3 -27.6,0.2 -52.9,6.3 -75.9,18.3 -22.9,11.9 -41.2,28.6 -55,50.3 -13.9,21.7 -21,47.1 -21.3,76.4 0.2,27.8 6.8,52.5 19.7,74.3 12.9,21.6 30.7,38.8 53.5,51.4 22.8,12.5 49.1,19 79,19.2 27.5,-0.1 52.5,-6.2 75.3,-18.2 22.8,-12 41.1,-28.7 54.9,-50.4 13.8,-21.6 20.9,-47.1 21.3,-76.3zm-33.1 0l0 0c-0.3,23.8 -5.6,44.6 -16,62.5 -10.4,18 -24.5,31.9 -42.3,41.9 -17.7,10.1 -37.8,15.2 -60.1,15.3 -24.6,-0.2 -45.8,-5.7 -63.6,-16.4 -17.7,-10.6 -31.4,-25 -41,-43 -9.6,-18 -14.4,-38.1 -14.5,-60.3 0.3,-23.7 5.6,-44.5 16,-62.4 10.4,-18 24.6,-31.9 42.4,-42 18,-10.1 38.2,-15.2 60.7,-15.4 22.3,0.2 42.4,5.3 60.1,15.4 17.8,10.1 31.9,24 42.3,42 10.4,17.9 15.7,38.7 16,62.4z"/>
    <rect fill="#BDBFC1" x="63.9" y="3469.3" width="5740.7" height="40.9"/>
    <rect fill="#BDBFC1" x="7195.5" y="3469.3" width="7243.6" height="40.9"/>
   </g>
   <g>
    <path fill="#06727F" fill-rule="nonzero" d="M187.3 4519.1c-18.7,0 -21,0.7 -25.7,15.1l-28.7 88c-4.6,15.2 -5.4,21.2 -5.4,27.3 0,4.6 6.2,9.1 27.9,12.9l23.3 3.8c4.7,5.3 6.2,22.8 -1.5,26.5 -27.2,-1.5 -58.2,-1.5 -90.8,-2.2 -26.4,0 -44.3,2.2 -80,2.2 -8.5,-4.5 -7.7,-20.4 -2.3,-26.5l20.9 -2.3c18.7,-2.2 34.2,-8.3 47.4,-37.9 13.2,-30.3 27.1,-66.7 48.1,-121.4l69.9 -185c17.8,-47.8 32.6,-74.4 30.2,-96.4 37.3,-8.3 66,-45.5 67.6,-45.5 10.1,0 14.7,3.8 17.8,15.2 6.2,22 15.5,50.1 34.9,103.9l105.6 297.3c16.3,45.6 23.3,63 52,67.6l29.5 4.5c4.7,3.8 6.2,22 -0.8,26.5 -37.2,-1.5 -79.1,-2.2 -119.5,-2.2 -38.8,0 -69.1,0.7 -104.8,2.2 -8.5,-4.5 -10.1,-20.4 -1.5,-26.5l24.8 -3.8c17.8,-3 21,-8.3 21,-12.9 0,-5.3 -5.5,-23.5 -14.8,-51.6l-20.9 -65.2c-3.9,-12.1 -10.1,-13.6 -37.3,-13.6l-86.9 0zm83 -40.2l0 0c17.9,0 21.7,-2.3 15.5,-22.1l-20.1 -61.4c-10.9,-32.6 -21,-63.7 -28,-79.6 -7.7,16.7 -20.2,48.5 -31.8,83.4l-19.4 56.9c-7,20.5 -3.1,22.8 16.3,22.8l67.5 0zm617.7 -179.8c0,-70.6 -4.6,-75.1 -39.6,-82l-19.4 -3.7c-6.2,-4.6 -7,-21.3 1.6,-25.8 37.2,1.5 76,2.3 113.3,2.3 38,0 76.1,-0.8 113.3,-2.3 6.2,4.5 6.2,21.2 0,25.8l-18.6 3c-34.9,6.1 -39.6,12.1 -39.6,82.7l0 175.2c0,88.8 10.1,186.6 128.1,186.6 99.3,0 129.6,-84.9 129.6,-188.9l0 -91.7c0,-61.5 -3.1,-119.1 -11.7,-138.8 -6.9,-16 -24,-20.5 -45,-24.4l-20.9 -3.7c-6.2,-6.1 -4.7,-21.3 0,-25.8 41.9,1.5 72.2,2.3 104,2.3 28.7,0 57.4,-0.8 86.9,-2.3 4.7,4.5 6.2,19.7 0,25.8l-13.9 3c-20.2,4.6 -35,9.1 -42,25.1 -8.5,19.7 -11.6,77.3 -11.6,138.8l0 84.9c0,71.3 -7,136.5 -49.7,182.8 -34.1,35.7 -90.8,54.6 -153.7,54.6 -59,0 -111.7,-9.1 -153.6,-42.5 -40.4,-32.6 -57.5,-88.7 -57.5,-171.4l0 -189.6zm582.8 340.6c0,-35.7 27.9,-63 62.9,-63 37.2,0 62.8,30.3 62.8,63 0,34.8 -25.6,61.4 -62.8,61.4 -31.1,0 -62.9,-24.3 -62.9,-61.4zm393.5 62.9c-71.4,0 -115.7,-19.7 -132,-28.8 -14.7,-16.7 -24.8,-71.3 -24.8,-122.9 5.4,-9.8 23.3,-10.6 29.5,-2.3 15.5,49.3 67.5,119.1 133.5,119.1 57.4,0 83.8,-38.7 83.8,-76.6 0,-61.4 -59,-97.8 -105.6,-120.6 -55.8,-27.3 -117.2,-72.8 -117.2,-147.9 -0.7,-85.7 67.6,-144.9 180.1,-144.9 25.6,0 57.4,3.1 88.5,12.2 10.1,3 17.1,4.5 26.4,6 6.2,16.7 13.9,57.7 13.9,108.5 -3.8,9.1 -23.2,9.9 -30.2,2.3 -13.2,-38.7 -46.6,-94.1 -102.5,-94.1 -51.2,0 -79.2,32.6 -79.2,70.6 0,34.9 31.9,66.7 70.7,86.4l51.2 26.6c48.1,25 109.5,69 109.5,152.4 0,93.3 -78.4,154 -195.6,154zm311.1 -62.9c0,-35.7 28,-63 62.9,-63 37.3,0 62.9,30.3 62.9,63 0,34.8 -25.6,61.4 -62.9,61.4 -31,0 -62.9,-24.3 -62.9,-61.4zm548.7 -326.2c0,-76.6 -1.6,-84.2 -34.2,-88.7l-20.9 -3.1c-7,-3.8 -8.6,-26.5 3.1,-27.3 59,-3.8 115.6,-6.8 193.2,-6.8 74.5,0 124.2,8.3 158.4,28 33.4,19.8 53.5,51.6 53.5,96.4 0,63.7 -55.1,88.7 -79.1,94.8 -7.8,1.5 -15.6,4.5 -15.6,8.4 0,2.2 3.9,4.5 10.9,6 61.3,12.9 113.3,52.3 114.1,125.9 0.8,69.8 -41.9,110.8 -90.8,127.4 -48.9,16.7 -107.1,19 -154.5,19 -27.9,0 -57.4,-3 -79.9,-3 -38,0 -76.1,0.7 -120.3,2.2 -6.2,-4.5 -6.2,-24.2 0,-26.5l22.5 -4.5c34.9,-6.9 39.6,-12.2 39.6,-80.4l0 -267.8zm107.1 73.6l0 0c0,19.7 0.8,21.2 41.1,21.2 66.8,0 91.6,-41.7 91.6,-87.2 0,-66 -41.9,-98.6 -95.4,-98.6 -36.5,0 -37.3,6 -37.3,39.4l0 125.2zm0 175.2l0 0c0,59.2 7.7,96.3 68.3,96.3 57.4,0 87.7,-43.2 87.7,-104.7 0,-65.9 -38.8,-112.2 -113.3,-112.2 -42.7,0 -42.7,0.8 -42.7,31.1l0 89.5zm551.8 2.3c0,35.6 3.1,59.9 13.2,72 10,12.9 24,19 80.7,19 70.6,0 92.3,-2.3 138.1,-90.3 6.2,-7.5 24.1,-4.5 29.5,4.6 -3.8,39.4 -22.5,102.4 -33.3,122.8 -41.2,-1.5 -115.7,-2.2 -179.3,-2.2l-104 0c-35.7,0 -74.6,0.7 -122.7,2.2 -7,-4.5 -8.5,-22 -2.3,-26.5l29.5 -3.8c34.9,-4.5 39.6,-10.6 39.6,-81.1l0 -282.2c0,-70.6 -4.7,-77.4 -39.6,-82l-22.5 -3c-7.8,-4.5 -7.8,-22 1.5,-26.5 40.4,1.5 79.2,2.3 116.5,2.3 37.2,0 76,-0.8 114.8,-2.3 6.2,4.5 6.2,22 0,26.5l-20.2 3c-34.9,5.4 -39.5,11.4 -39.5,82l0 265.5zm866.9 -126.7c0,165.4 -113.4,264.7 -280.2,264.7 -156.1,0 -269.4,-100.1 -269.4,-258.6 0,-150.2 114.9,-266.3 277.1,-266.3 161.5,0 272.5,106.2 272.5,260.2zm-278.7 -225.3l0 0c-95.5,0 -146.7,87.3 -146.7,213.9 0,92.6 33.4,241.2 159.9,241.2 101.7,0 141.3,-97.1 141.3,-219.9 0,-129.7 -58.2,-235.2 -154.5,-235.2zm864.6 -15.2c0,13.7 2.3,74.4 9.3,118.4 -3.1,9.1 -24.1,12.1 -29.5,5.3 -21,-70.6 -70.7,-108.5 -146,-108.5 -86.1,0 -178.5,72.1 -178.5,223 0,151 89.3,232.1 182.4,232.1 94,0 137.4,-66 158.4,-117.6 6.2,-6 24.8,-3.7 29.5,5.4 -5.5,56.1 -18.6,101.6 -29.5,119 -41.9,11.4 -97,28.1 -157.6,28.1 -76,0 -153.7,-17.4 -208.8,-57.6 -55.9,-41.7 -98.6,-104.7 -98.6,-198.8 0,-92.5 40.4,-157.7 94,-201 55.1,-44.7 134.2,-67.5 215,-67.5 79.1,0 136.6,18.2 159.9,19.7zm289.4 194.2c0,25 4.6,28.1 13.9,28.1 16.3,0 47.4,-28.8 59.8,-44 41.1,-48.5 79.2,-93.3 104,-128.9 7,-9.9 10.1,-16.7 10.1,-19.8 0,-3 -3.1,-8.3 -13.2,-9.9l-17.9 -3c-8.5,-5.3 -6.9,-23.5 3.1,-26.5 39.7,1.5 68.4,2.3 96.3,2.3 28.7,0 62.9,-0.8 93.9,-2.3 9.3,3 10.1,20.5 3.9,26.5 -27.2,3 -50.5,6.9 -66.8,13.7 -31,12.1 -64.4,40.9 -114.8,97.1l-35.7 39.4c-7.8,8.4 -10.1,14.4 -10.1,17.5 0,3.8 4.6,12.8 27.9,47 38.8,56.9 84.6,129.7 137.4,198 20.9,27.3 35.7,32.6 57.4,35.6l24.9 3.8c4.6,6.9 4.6,22.8 -2.4,26.5 -38.8,-1.5 -76,-2.2 -111.7,-2.2 -39.6,0 -78.4,0.7 -121.9,2.2 -10.1,-3 -10.1,-22 -1.5,-26.5l19.4 -4.5c8.5,-2.3 13.2,-4.6 13.2,-7.6 0,-3.1 -1.6,-8.4 -6.2,-15.2 -4.7,-6.8 -37.3,-56.1 -45.1,-67.5l-41.1 -61.4c-27.9,-41.8 -41.1,-60 -58.2,-60 -17.9,0 -18.6,10.7 -18.6,51.6l0 79.7c0,70.5 4.6,77.3 39.5,81.9l21.8 3c6.2,5.3 6.2,22 0,26.5 -41.2,-1.5 -80,-2.2 -117.2,-2.2 -34.9,0 -75.3,0.7 -116.5,2.2 -6.2,-4.5 -6.2,-22 0,-26.5l21.8 -3c34.9,-4.6 39.6,-11.4 39.6,-81.9l0 -282.2c0,-70.6 -4.7,-77.4 -39.6,-82l-21.8 -3c-8.5,-4.5 -8.5,-22 0,-26.5 38.9,1.5 77.7,2.3 116.5,2.3 37.2,0 76,-0.8 117.2,-2.3 6.9,4.5 6.9,22 0,26.5l-21.8 3c-34.9,4.6 -39.5,11.4 -39.5,82l0 92.5zm1385.3 -172.1c-17.9,3.7 -26.4,9.8 -31.8,16.6 -8.6,12.2 -21.8,36.4 -42.7,84.2 -38.1,88.8 -125.8,277.6 -163.8,376.3 -4.7,3.7 -15.5,6 -25.6,6 -8.6,0 -15.5,-2.3 -21,-6 -8.5,-18.2 -20.2,-45.6 -29.5,-66.8l-32.6 -72c-10.8,-24.3 -20.9,-47.1 -27.9,-58.5 -7,13 -16.3,31.1 -26.4,52.4l-36.5 77.3c-11.6,24.3 -20.2,46.3 -32.6,71.3 -3.9,3.8 -14,6.1 -25.6,6.1 -8.5,0 -13.2,-2.3 -20.2,-6.1 -12.4,-31.8 -43.4,-100.1 -69.8,-157l-127.3 -271.5c-21,-44.8 -25.6,-48.6 -51.2,-53.9l-19.5 -3.8c-6.2,-7.5 -5.4,-22.7 3.2,-26.5 28.7,1.5 61.3,2.3 100.8,2.3 34.2,0 64.5,-0.8 94,-2.3 6.2,3 9.3,22 1.5,26.5l-13.9 2.3c-14,2.3 -19.5,6.1 -19.5,11.4 0,5.3 16.3,40.9 40.4,94.1l76.8 167.6c21.8,47 29.5,62.9 38.9,81.1 9.3,-16.7 21.7,-39.4 37.2,-73.6l10.1 -22c5.4,-12.1 10.1,-28.8 10.1,-33.3 0,-4.6 -1.6,-12.9 -4.7,-20.5l-74.5 -160c-17.8,-38 -23.3,-43.3 -52.8,-46.3l-7.7 -0.8c-7.8,-6 -6.2,-23.5 2.3,-26.5 33.4,1.5 63.7,2.3 97.8,2.3 39.6,0 69.1,-0.8 89.3,-2.3 9.3,2.3 8.5,22.7 3.1,26.5l-13.2 3c-9.3,2.4 -21,5.4 -21,10.7 0,6.1 3.1,14.4 7,22.7l23.3 52.4c7,15.9 14.7,32.6 21.7,46.2 7.8,-15.9 15.5,-31 23.3,-47.7l7 -15.2c13.2,-28.8 20.9,-51.6 20.9,-56.1 0,-5.3 -3,-7.6 -15.5,-10.6l-23.3 -5.4c-5.4,-5.3 -4.6,-22.7 2.4,-26.5 22.5,1.5 50.4,2.3 76,2.3 30.3,0 59,-0.8 79.2,-2.3 6.2,3.8 7.8,22 0.8,27.3l-21.7 4.6c-26.4,5.3 -31.9,8.3 -59,53.8 -18.7,31.1 -38.1,66 -48.2,85.7 -7,13.7 -17,35.6 -17,39.5 0,2.2 0.7,6.8 6.2,18.9l36.4 76.6c20.2,41.8 29.5,63.8 34.2,74.4 37.3,-88 73.7,-182.1 111,-274.6 5.4,-12.9 21,-56.2 21,-64.5 0,-5.3 -4.7,-7.6 -14.8,-10.6l-17.1 -4.6c-6.2,-6.8 -4.6,-22.7 2.3,-26.5 24.9,1.5 55.9,2.3 79.2,2.3 27.2,0 49.7,-0.8 71.4,-2.3 7,3.8 7.8,20.5 2.3,26.5l-23.2 5.4zm238.1 360.2c0,71.3 4.7,76.7 40.4,82.7l21.7 3.8c6.2,4.5 5.5,22 -0.8,26.5 -41.9,-1.5 -79.9,-2.2 -116.4,-2.2 -37.3,0 -76.1,0.7 -118,2.2 -6.2,-4.5 -6.2,-22 0,-26.5l21.8 -3.8c35.7,-6 40.3,-11.4 40.3,-82.7l0 -279.1c0,-71.3 -4.6,-76.6 -40.3,-82.7l-21.8 -3.8c-6.2,-4.5 -6.2,-22 0,-26.5 41.9,1.5 80.7,2.3 118,2.3 36.5,0 75.3,-0.8 117.2,-2.3 6.2,4.5 6.2,22 0,26.5l-21.7 3.8c-35.7,6.1 -40.4,11.4 -40.4,82.7l0 279.1zm649.6 -18.2c0,49.3 0,97.1 1.6,122.2 -5.5,9 -27.2,17.4 -45.8,17.4 -0.8,0 -26.4,-38.7 -62.9,-82.7l-179.3 -216.9c-45,-53.9 -70.6,-85.7 -84.6,-97.1 -3.9,7.6 -3.9,20.5 -3.9,48.5l0 147.2c0,61.4 3.1,118.3 11.7,138.8 6.9,15.9 24.8,21.2 45,24.3l21.7 3c6.2,6.1 4.7,22 0,26.5 -41.9,-1.5 -72.9,-2.2 -104,-2.2 -28.7,0 -57.4,0.7 -86.9,2.2 -4.7,-4.5 -6.2,-20.4 0,-26.5l13.2 -2.3c20.9,-3.8 36.5,-9.1 42.7,-25 8.5,-20.5 10.8,-77.4 10.8,-138.8l0 -192.7c0,-41.7 -0.7,-53.8 -5.4,-64.4 -6.2,-12.9 -17.1,-22 -44.3,-25.9l-21.7 -3c-5.4,-6 -4.6,-24.2 3.1,-26.5 36.5,1.5 75.3,2.3 107.1,2.3 26.4,0 48.9,-0.8 65.2,-2.3 7.8,34.1 58.2,91.8 128.1,172.9l65.2 75.1c34.2,39.4 56.7,66 74.5,83.5 3.1,-7.6 3.1,-20.5 3.1,-34.2l0 -104.6c0,-61.5 -3.1,-118.4 -11.6,-138.8 -7,-16 -24.1,-21.3 -45.1,-24.4l-20.9 -3c-6.2,-6 -4.7,-22 0,-26.5 41.9,1.5 72.2,2.3 104,2.3 28.7,0 56.7,-0.8 87,-2.3 4.6,4.5 6.2,20.5 0,26.5l-14 2.3c-20.2,3.1 -34.9,9.1 -42,25.1 -8.5,20.4 -11.6,77.3 -11.6,138.8l0 181.2zm218 -248.8c0,-72 -1.5,-86.4 -37.3,-90.2l-14.7 -1.5c-7.8,-3.9 -7.8,-25.8 1.5,-26.6 65.3,-3.8 125.8,-6.8 208.1,-6.8 63.6,0 127.2,6 180.8,25 101.7,35.7 157.5,125.2 157.5,220 0,101.6 -49.6,183.6 -138.9,226.8 -52.7,25.8 -116.4,35.6 -196.3,35.6 -36.5,0 -75.3,-4.5 -103.3,-4.5 -37.2,0 -76.8,0.7 -121.1,2.2 -6.2,-4.5 -6.2,-22.7 0,-26.5l24.1 -3.8c34.9,-5.3 39.6,-11.4 39.6,-81.1l0 -268.6zm111 240.5l0 0c0,41.7 1.5,69 15.5,84.9 14,15.2 36.5,22 64.4,22 134.3,0 180.1,-116.8 180.1,-219.9 0,-136.6 -73.8,-217.7 -214.2,-217.7 -21,0 -35.7,3.8 -40.4,9.8 -4.6,6.1 -5.4,20.5 -5.4,44.1l0 276.8zm1051.6 -115.3c0,165.4 -113.3,264.7 -280.2,264.7 -156,0 -269.4,-100.1 -269.4,-258.6 0,-150.2 114.9,-266.3 277.2,-266.3 161.4,0 272.4,106.2 272.4,260.2zm-278.6 -225.3l0 0c-95.5,0 -146.8,87.3 -146.8,213.9 0,92.6 33.4,241.2 159.9,241.2 101.7,0 141.3,-97.1 141.3,-219.9 0,-129.7 -58.2,-235.2 -154.4,-235.2zm1085.7 6.9c-17.8,3.7 -26.4,9.8 -31.8,16.6 -8.6,12.2 -21.8,36.4 -42.7,84.2 -38,88.8 -125.7,277.6 -163.8,376.3 -4.6,3.7 -15.5,6 -25.6,6 -8.5,0 -15.5,-2.3 -21,-6 -8.5,-18.2 -20.1,-45.6 -29.4,-66.8l-32.6 -72c-10.9,-24.3 -21,-47.1 -28,-58.5 -7,13 -16.3,31.1 -26.4,52.4l-36.4 77.3c-11.7,24.3 -20.2,46.3 -32.6,71.3 -3.9,3.8 -14,6.1 -25.7,6.1 -8.5,0 -13.1,-2.3 -20.2,-6.1 -12.4,-31.8 -43.4,-100.1 -69.8,-157l-127.3 -271.5c-20.9,-44.8 -25.6,-48.6 -51.2,-53.9l-19.4 -3.8c-6.2,-7.5 -5.5,-22.7 3.1,-26.5 28.7,1.5 61.3,2.3 100.9,2.3 34.1,0 64.4,-0.8 93.9,-2.3 6.2,3 9.3,22 1.6,26.5l-14 2.3c-14,2.3 -19.4,6.1 -19.4,11.4 0,5.3 16.3,40.9 40.3,94.1l76.9 167.6c21.7,47 29.5,62.9 38.8,81.1 9.3,-16.7 21.7,-39.4 37.2,-73.6l10.1 -22c5.4,-12.1 10.1,-28.8 10.1,-33.3 0,-4.6 -1.5,-12.9 -4.7,-20.5l-74.5 -160c-17.8,-38 -23.2,-43.3 -52.7,-46.3l-7.8 -0.8c-7.7,-6 -6.2,-23.5 2.3,-26.5 33.4,1.5 63.7,2.3 97.9,2.3 39.5,0 69,-0.8 89.2,-2.3 9.3,2.3 8.5,22.7 3.1,26.5l-13.2 3c-9.3,2.4 -20.9,5.4 -20.9,10.7 0,6.1 3.1,14.4 7,22.7l23.2 52.4c7,15.9 14.8,32.6 21.8,46.2 7.7,-15.9 15.5,-31 23.3,-47.7l6.9 -15.2c13.2,-28.8 21,-51.6 21,-56.1 0,-5.3 -3.1,-7.6 -15.5,-10.6l-23.3 -5.4c-5.4,-5.3 -4.7,-22.7 2.3,-26.5 22.5,1.5 50.4,2.3 76.1,2.3 30.2,0 58.9,-0.8 79.1,-2.3 6.2,3.8 7.8,22 0.8,27.3l-21.7 4.6c-26.4,5.3 -31.8,8.3 -59,53.8 -18.6,31.1 -38,66 -48.1,85.7 -7,13.7 -17.1,35.6 -17.1,39.5 0,2.2 0.8,6.8 6.2,18.9l36.5 76.6c20.2,41.8 29.5,63.8 34.1,74.4 37.3,-88 73.8,-182.1 111,-274.6 5.5,-12.9 21,-56.2 21,-64.5 0,-5.3 -4.7,-7.6 -14.8,-10.6l-17 -4.6c-6.2,-6.8 -4.7,-22.7 2.3,-26.5 24.8,1.5 55.9,2.3 79.2,2.3 27.1,0 49.6,-0.8 71.4,-2.3 7,3.8 7.8,20.5 2.3,26.5l-23.3 5.4zm213.3 483.1c-71.4,0 -115.7,-19.7 -132,-28.8 -14.7,-16.7 -24.8,-71.3 -24.8,-122.9 5.4,-9.8 23.3,-10.6 29.5,-2.3 15.5,49.3 67.5,119.1 133.5,119.1 57.4,0 83.8,-38.7 83.8,-76.6 0,-61.4 -59,-97.8 -105.5,-120.6 -55.9,-27.3 -117.2,-72.8 -117.2,-147.9 -0.8,-85.7 67.5,-144.9 180,-144.9 25.6,0 57.5,3.1 88.5,12.2 10.1,3 17.1,4.5 26.4,6 6.2,16.7 14,57.7 14,108.5 -3.9,9.1 -23.3,9.9 -30.3,2.3 -13.2,-38.7 -46.5,-94.1 -102.4,-94.1 -51.3,0 -79.2,32.6 -79.2,70.6 0,34.9 31.8,66.7 70.6,86.4l51.3 26.6c48.1,25 109.4,69 109.4,152.4 0,93.3 -78.4,154 -195.6,154zm1014.4 -505.2c0,13.7 2.3,74.4 9.3,118.4 -3.1,9.1 -24.1,12.1 -29.5,5.3 -21,-70.6 -70.6,-108.5 -145.9,-108.5 -86.2,0 -178.6,72.1 -178.6,223 0,151 89.3,232.1 182.4,232.1 93.9,0 137.4,-66 158.4,-117.6 6.2,-6 24.8,-3.7 29.5,5.4 -5.5,56.1 -18.7,101.6 -29.5,119 -42,11.4 -97,28.1 -157.6,28.1 -76.1,0 -153.7,-17.4 -208.8,-57.6 -55.9,-41.7 -98.6,-104.7 -98.6,-198.8 0,-92.5 40.4,-157.7 94,-201 55.1,-44.7 134.2,-67.5 215,-67.5 79.1,0 136.5,18.2 159.9,19.7zm661.1 240.5c0,165.4 -113.3,264.7 -280.2,264.7 -156,0 -269.3,-100.1 -269.3,-258.6 0,-150.2 114.9,-266.3 277.1,-266.3 161.4,0 272.4,106.2 272.4,260.2zm-278.6 -225.3l0 0c-95.5,0 -146.7,87.3 -146.7,213.9 0,92.6 33.4,241.2 159.9,241.2 101.7,0 141.3,-97.1 141.3,-219.9 0,-129.7 -58.3,-235.2 -154.5,-235.2zm391.1 1.5c-6.2,-6 -6.2,-24.2 2.3,-26.5 26.4,1.5 59.8,2.3 97.8,2.3 25.6,0 48.1,0 76.1,-2.3 0,47 27.1,93.3 61.3,164.6l51.2 106.9c7,15.2 31.1,58.4 41.9,77.4 10.1,-18.2 22.5,-41.7 43.5,-86.5l39.6 -83.4c37.2,-78.1 54.3,-113.8 71.4,-179 35.7,3 59.8,2.3 83,2.3 25.7,0 61.4,-0.8 89.3,-2.3 8.5,4.5 8.5,19 2.3,26.5l-22.5 3.8c-31.8,5.3 -47.3,14.4 -47.3,54.6 0,156.3 1.5,238.2 6.2,333.8 1.6,34.9 4.6,53.1 34.9,56.9l24.9 3c6.2,6.1 6.2,23.5 -1.6,26.5 -35.7,-1.5 -69.1,-2.2 -107.1,-2.2 -34.9,0 -77.6,0.7 -114.9,2.2 -9.3,-3.7 -10.1,-21.2 -2.3,-26.5l23.3 -3c35.7,-4.6 35.7,-13.7 35.7,-59.9l-1.6 -197.3 0 -86.4 -1.5 0c-57.5,121.3 -119.5,248 -170.8,376.2 -3.9,3 -9.3,5.3 -15.5,5.3 -7,0 -15.5,-1.5 -20.2,-4.5 -30.3,-94.1 -122.6,-278.4 -166.1,-377l-1.6 0c-3,49.3 -4.6,78.9 -5.4,118.3 -0.8,49.3 -1.5,125.2 -1.5,170.7 0,37.9 4.6,48.5 35.7,53.1l30.2 4.5c6.2,5.3 4.7,22.8 -1.5,26.5 -28.7,-1.5 -62.1,-2.2 -91.6,-2.2 -24.9,0 -56.7,0.7 -87.7,2.2 -10.1,-3 -10.1,-22.7 -3.1,-26.5l14 -2.3c39.6,-6.8 41.9,-11.4 46.5,-58.4 3.9,-37.1 7.8,-103.1 12.5,-175.2 3,-50.8 5.4,-112.2 5.4,-153.2 0,-43.2 -17.1,-54.6 -48.1,-60l-17.1 -3zm821.8 98.6c0,-76.6 -1.6,-85.7 -34.2,-89.5l-24 -3c-7,-3.8 -7,-20.5 1.5,-25.8 51.3,-3.8 111.8,-6.8 179.3,-6.8 66,0 109.5,7.6 142.1,19.7 47.3,17.5 94.7,57.7 94.7,131.2 0,124.4 -128.1,142.6 -169.3,142.6 -9.3,0 -16.3,0 -24.8,-0.7 -6.2,-3.8 -7.8,-16 -2.3,-20.5 64.4,-19.7 77.6,-64.5 77.6,-120.6 0,-56.1 -29.5,-116.8 -99.4,-116.8 -28.6,0 -30.2,8.3 -30.2,38.7l0 320.1c0,70.5 4.6,76.6 39.6,81.9l24.8 3.8c8.5,3.7 8.5,21.2 0,25.7 -43.5,-1.5 -81.5,-2.2 -118.8,-2.2 -37.2,0 -74.5,0.7 -116.3,2.2 -8.6,-4.5 -10.2,-22 -1.6,-25.7l21.7 -3.8c34.9,-6.1 39.6,-11.4 39.6,-81.9l0 -268.6zm524.6 206.4c-18.6,0 -20.9,0.7 -25.6,15.1l-28.7 88c-4.7,15.2 -5.5,21.2 -5.5,27.3 0,4.6 6.3,9.1 28,12.9l23.3 3.8c4.6,5.3 6.2,22.8 -1.6,26.5 -27.1,-1.5 -58.2,-1.5 -90.8,-2.2 -26.4,0 -44.2,2.2 -79.9,2.2 -8.6,-4.5 -7.8,-20.4 -2.4,-26.5l21 -2.3c18.6,-2.2 34.2,-8.3 47.3,-37.9 13.2,-30.3 27.2,-66.7 48.2,-121.4l69.8 -185c17.9,-47.8 32.6,-74.4 30.3,-96.4 37.3,-8.3 65.9,-45.5 67.5,-45.5 10.1,0 14.8,3.8 17.9,15.2 6.2,22 15.5,50.1 34.9,103.9l105.6 297.3c16.3,45.6 23.2,63 52,67.6l29.5 4.5c4.6,3.8 6.2,22 -0.8,26.5 -37.3,-1.5 -79.2,-2.2 -119.6,-2.2 -38.8,0 -69,0.7 -104.7,2.2 -8.6,-4.5 -10.1,-20.4 -1.6,-26.5l24.8 -3.8c17.9,-3 21,-8.3 21,-12.9 0,-5.3 -5.5,-23.5 -14.7,-51.6l-21 -65.2c-3.9,-12.1 -10.1,-13.6 -37.2,-13.6l-87 0zm83.1 -40.2l0 0c17.8,0 21.7,-2.3 15.5,-22.1l-20.2 -61.4c-10.9,-32.6 -21,-63.7 -27.9,-79.6 -7.8,16.7 -20.2,48.5 -31.9,83.4l-19.4 56.9c-6.9,20.5 -3.1,22.8 16.3,22.8l67.6 0zm797.8 82.6c0,49.3 0,97.1 1.5,122.2 -5.4,9 -27.2,17.4 -45.8,17.4 -0.8,0 -26.4,-38.7 -62.8,-82.7l-179.4 -216.9c-45,-53.9 -70.6,-85.7 -84.5,-97.1 -3.9,7.6 -3.9,20.5 -3.9,48.5l0 147.2c0,61.4 3.1,118.3 11.6,138.8 7,15.9 24.9,21.2 45,24.3l21.8 3c6.2,6.1 4.6,22 0,26.5 -41.9,-1.5 -73,-2.2 -104,-2.2 -28.7,0 -57.5,0.7 -87,2.2 -4.6,-4.5 -6.2,-20.4 0,-26.5l13.2 -2.3c21,-3.8 36.5,-9.1 42.7,-25 8.5,-20.5 10.9,-77.4 10.9,-138.8l0 -192.7c0,-41.7 -0.8,-53.8 -5.5,-64.4 -6.2,-12.9 -17.1,-22 -44.2,-25.9l-21.7 -3c-5.5,-6 -4.7,-24.2 3.1,-26.5 36.5,1.5 75.3,2.3 107.1,2.3 26.4,0 48.9,-0.8 65.2,-2.3 7.7,34.1 58.2,91.8 128.1,172.9l65.2 75.1c34.1,39.4 56.6,66 74.5,83.5 3,-7.6 3,-20.5 3,-34.2l0 -104.6c0,-61.5 -3,-118.4 -11.6,-138.8 -6.9,-16 -24,-21.3 -45,-24.4l-20.9 -3c-6.2,-6 -4.7,-22 0,-26.5 41.9,1.5 72.1,2.3 103.9,2.3 28.8,0 56.7,-0.8 87,-2.3 4.6,4.5 6.2,20.5 0,26.5l-14 2.3c-20.2,3.1 -34.9,9.1 -41.9,25.1 -8.5,20.4 -11.6,77.3 -11.6,138.8l0 181.2zm414.3 19.8c0,70.5 4.7,76.6 39.6,81.1l31 3.8c5.5,4.5 5.5,22 0,26.5 -50.4,-1.5 -88.4,-2.2 -125.7,-2.2 -37.2,0 -76.1,0.7 -121.9,2.2 -6.2,-4.5 -6.2,-22 0,-26.5l26.4 -3.8c35,-5.3 39.6,-10.6 39.6,-81.1l0 -38c0,-37.9 -0.8,-50 -20.9,-90.2l-92.4 -186.6c-15.5,-31.1 -22.5,-43.3 -49.7,-47.8l-26.4 -4.6c-6.9,-6 -6.2,-24.2 3.1,-26.5 35,1.5 63.7,2.3 109.5,2.3 47.3,0 86.9,-0.8 113.3,-2.3 7,3 8.6,20.5 1.5,26.5l-26.3 6.1c-14,3 -18.6,6.1 -18.6,6.8 0,6.1 3.8,17.5 20.1,53.1l36.5 81.2c11.6,25 26.4,55.3 35.7,74.3 22.5,-37.1 44.2,-81.1 65.2,-119.8 29.5,-53.9 40.4,-78.9 40.4,-88 0,-4.6 -7.8,-7.6 -26.4,-10.7l-17.9 -3c-6.2,-3.8 -7,-22.7 0.8,-26.5 31,1.5 59,2.3 86.9,2.3 29.5,0 53.6,-0.8 76.1,-2.3 9.3,3 9.3,21.2 3.1,26.5l-20.2 3.8c-14,2.3 -28.7,7.6 -37.2,18.2 -11.7,14.4 -31.1,41.8 -68.4,107.7l-48.9 86.5c-20.1,35.7 -27.9,54.6 -27.9,97.9l0 53.1z"/>
    <g>
     <line fill="#06727F" fill-rule="nonzero" x1="38.5" y1="3568.1" x2="5694.9" y2= "3568.1" />
    </g>
    <polygon fill="#06727F" fill-rule="nonzero" points="38.5,3568.1 5694.9,3568.1 "/>
    <polygon fill="#06727F" fill-rule="nonzero" points="38.5,3568.1 5694.9,3568.1 "/>
   </g>
  </g>
 </g>
</svg>
